<svg width="93" height="116" viewBox="0 0 93 116" fill="none" xmlns="http://www.w3.org/2000/svg">
<path d="M93 52.4842V34.7666C93 15.5447 77.1917 0 57.8517 0H35.1483C15.8083 0 0 15.5447 0 34.7666V81.0663C0 100.455 15.8083 116 35.1483 116H57.8517C77.1917 116 93 100.455 93 81.0663V63.5159C87.1139 63.5159 82.4051 68.196 82.4051 73.879V81.0663C82.4051 94.6052 71.4738 105.637 57.8517 105.637H35.1483C21.5262 105.637 10.5949 94.6052 10.5949 81.0663V34.7666C10.5949 21.3948 21.5262 10.3631 35.1483 10.3631H57.8517C71.4738 10.3631 82.4051 21.3948 82.4051 34.7666V42.121H73.8282V34.7666C73.8282 26.0749 66.5967 19.0548 57.8517 19.0548H35.1483C26.4033 19.0548 19.1718 26.0749 19.1718 34.7666V37.4409C19.1718 45.464 23.8807 52.8184 31.1121 56.3285L54.9928 67.8617C60.038 70.3689 63.4014 75.5504 63.4014 81.0663C63.4014 84.0749 60.8788 86.5821 57.8517 86.5821C51.6293 86.5821 41.3707 86.5821 35.1483 86.5821C32.1212 86.5821 29.5986 84.0749 29.5986 81.0663V73.879C29.5986 68.196 25.0579 63.5159 19.1718 63.5159V81.0663C19.1718 89.9251 26.4033 96.9453 35.1483 96.9453H57.8517C66.5967 96.9453 73.8282 89.9251 73.8282 81.0663V78.5591C73.8282 70.536 69.1193 63.1816 61.8879 59.6715L38.0072 48.1383C32.962 45.6311 29.5986 40.4496 29.5986 34.7666C29.7667 31.7579 32.1212 29.4179 35.1483 29.4179H57.8517C60.8788 29.4179 63.4014 31.9251 63.4014 34.7666V52.4842H93Z" fill="#1D2D42"/>
</svg>
